#!OML:ASF F:\VICON\USERDATA\INSTALL\rory7\rory7.ASF
:FULLY-SPECIFIED
:DEGREES
552
root -0.0302423 18.8313 4.13092 -3.60584 -5.59455 0.517723
lowerback 5.85487 1.76294 -1.62162
upperback 0.14089 2.19546 -1.3306
thorax -3.14503 1.10648 -0.647836
lowerneck -5.74803 -5.05841 -5.70306
upperneck 14.0792 -7.3706 7.67983
head 5.68132 -3.39947 2.83874
rclavicle 4.80438e-014 5.96354e-015
rhumerus 9.88747 24.061 -61.6271
rradius 131.507
rwrist -8.99864
rhand -35.3578 -0.579277
rfingers 7.12502
rthumb -8.49012 -30.3886
lclavicle 4.80438e-014 5.96354e-015
lhumerus -34.2491 14.8624 71.4673
lradius 20.726
lwrist -9.63362
lhand -24.7109 20.7908
lfingers 7.12502
lthumb 1.79075 50.763
rfemur 0 0 0
rtibia 0
rfoot 0 0
rtoes 0
lfemur 7.31245 -9.77037 -19.5451
ltibia 9.86368
lfoot -13.2623 21.8339
ltoes -4.11241
553
root -0.0291923 18.8316 4.1315 -3.59138 -5.543 0.567988
lowerback 5.82427 1.73754 -1.66148
upperback 0.10565 2.15911 -1.33072
thorax -3.16567 1.08916 -0.622324
lowerneck -5.79802 -5.07398 -5.73241
upperneck 13.9997 -7.3714 7.61447
head 5.66403 -3.40554 2.82177
rclavicle 7.82093e-015 -1.15295e-014
rhumerus 10.3732 23.8504 -61.3249
rradius 131.605
rwrist -8.74523
rhand -35.2412 -1.03915
rfingers 7.12502
rthumb -8.37758 -30.853
lclavicle 7.82093e-015 -1.15295e-014
lhumerus -34.385 14.896 71.4447
lradius 20.7506
lwrist -9.54856
lhand -24.7966 21.0667
lfingers 7.12502
lthumb 1.708 51.0396
rfemur 0 0 0
rtibia 0
rfoot 0 0
rtoes 0
lfemur 7.28767 -9.79397 -19.596
ltibia 9.88464
lfoot -13.3097 21.8015
ltoes -4.17488
554
root -0.0292587 18.8304 4.12952 -3.60253 -5.49738 0.578623
lowerback 5.78531 1.70209 -1.67953
upperback 0.11754 2.11212 -1.32645
thorax -3.13223 1.06598 -0.602235
lowerneck -5.7694 -5.02456 -5.79515
upperneck 13.8102 -7.29338 7.6681
head 5.59882 -3.3705 2.85621
rclavicle 2.46555e-014 -1.74931e-014
rhumerus 10.9377 23.6024 -61.0111
rradius 131.664
rwrist -8.48564
rhand -34.8377 -2.69143
rfingers 7.12502
rthumb -7.98811 -32.5205
lclavicle 2.46555e-014 -1.74931e-014
lhumerus -34.4487 14.9988 71.3747
lradius 20.7406
lwrist -9.54237
lhand -24.8597 21.4441
lfingers 7.12502
lthumb 1.64708 51.4175
rfemur 0 0 0
rtibia 0
rfoot 0 0
rtoes 0
lfemur 7.29621 -9.81513 -19.6058
ltibia 9.86755
lfoot -13.2869 21.7897
ltoes -4.2177
555
root -0.0293658 18.8297 4.12776 -3.60552 -5.45508 0.574808
lowerback 5.76537 1.68003 -1.69616
upperback 0.132496 2.0828 -1.316
thorax -3.10649 1.05161 -0.578692
lowerneck -5.61081 -4.98391 -5.85314
upperneck 13.4214 -7.22418 7.74928
head 5.45093 -3.34342 2.90142
rclavicle 2.35001e-014 4.37326e-015
rhumerus 11.5304 23.3309 -60.6893
rradius 131.735
rwrist -8.31014
rhand -36.6939 4.5458
rfingers 7.12502
rthumb -9.77932 -25.2071
lclavicle 2.35001e-014 4.37326e-015
lhumerus -34.4922 15.0827 71.3203
lradius 20.754
lwrist -9.53705
lhand -24.9354 21.5962
lfingers 7.12502
lthumb 1.57392 51.5702
rfemur 0 0 0
rtibia 0
rfoot 0 0
rtoes 0
lfemur 7.30457 -9.83405 -19.5982
ltibia 9.82848
lfoot -13.232 21.7751
ltoes -4.09235
556
root -0.0284779 18.8309 4.12692 -3.58313 -5.39549 0.592384
lowerback 5.76135 1.73078 -1.66354
upperback 0.238421 2.15211 -1.39921
thorax -2.99075 1.08447 -0.685881
lowerneck -5.94668 -5.08386 -5.6557
upperneck 13.1222 -7.34683 7.74243
head 5.41756 -3.38977 2.85024
rclavicle -1.11754e-014 2.0276e-014
rhumerus 12.1462 22.7272 -60.3994
rradius 131.778
rwrist -8.12461
rhand -36.7004 5.38778
rfingers 7.12502
rthumb -9.78557 -24.3649
lclavicle -1.11754e-014 2.0276e-014
lhumerus -34.1501 15.0665 71.2857
lradius 20.7405
lwrist -9.82929
lhand -25.1284 21.7102
lfingers 7.12502
lthumb 1.38757 51.6855
rfemur 0 0 0
rtibia 0
rfoot 0 0
rtoes 0
lfemur 7.27723 -9.86877 -19.6076
ltibia 9.80019
lfoot -13.1889 21.7584
ltoes -3.99322
557
root -0.0281477 18.832 4.12688 -3.58232 -5.31757 0.620272
lowerback 5.76725 1.89206 -1.58126
upperback 0.607028 2.37265 -1.63683
thorax -2.60081 1.19037 -0.985781
lowerneck -7.3443 -5.35673 -4.93857
upperneck 13.1237 -7.73097 7.59552
head 5.6527 -3.51724 2.62148
rclavicle -2.32267e-014 7.95139e-015
rhumerus 12.9622 21.4971 -60.1084
rradius 131.765
rwrist -7.80636
rhand -36.1714 3.46577
rfingers 7.12502
rthumb -9.27517 -26.3102
lclavicle -2.32267e-014 7.95139e-015
lhumerus -32.9934 14.8517 71.3442
lradius 20.5524
lwrist -10.1373
lhand -25.225 21.7044
lfingers 7.12502
lthumb 1.29423 51.6802
rfemur 0 0 0
rtibia 0
rfoot 0 0
rtoes 0
lfemur 7.26382 -9.92114 -19.633
ltibia 9.78403
lfoot -13.1514 21.7584
ltoes -4.19865
558
root -0.028415 18.8313 4.12725 -3.59565 -5.2582 0.644052
lowerback 5.79745 1.69661 -1.73404
upperback 0.211691 2.10044 -1.3965
thorax -3.04115 1.05993 -0.641196
lowerneck -5.72394 -5.12433 -5.76046
upperneck 12.4959 -7.35891 7.74824
head 5.191 -3.41419 2.87593
rclavicle -1.63935e-014 4.77083e-015
rhumerus 13.0384 22.2027 -59.7836
rradius 131.888
rwrist -7.67565
rhand -36.5113 3.7332
rfingers 7.12502
rthumb -9.60313 -26.0279
lclavicle -1.63935e-014 4.77083e-015
lhumerus -34.199 15.2879 71.1702
lradius 20.6695
lwrist -9.72076
lhand -24.862 21.5763
lfingers 7.12502
lthumb 1.64488 51.5497
rfemur 0 0 0
rtibia 0
rfoot 0 0
rtoes 0
lfemur 7.29194 -9.95459 -19.6619
ltibia 9.76241
lfoot -13.182 21.7107
ltoes -4.1527
559
root -0.0279136 18.83 4.12815 -3.56827 -5.23081 0.660451
lowerback 5.78493 1.6225 -1.79063
upperback 0.0499229 1.99757 -1.319
thorax -3.20559 1.01117 -0.524147
lowerneck -5.13122 -5.0608 -6.06452
upperneck 12.1462 -7.2526 7.80679
head 4.98778 -3.39141 2.9676
rclavicle -1.42255e-014 -1.59028e-014
rhumerus 13.3499 22.3319 -59.4761
rradius 131.942
rwrist -7.46809
rhand -36.8509 4.51043
rfingers 7.12502
rthumb -9.93079 -25.2353
lclavicle -1.42255e-014 -1.59028e-014
lhumerus -34.6494 15.448 71.0831
lradius 20.7132
lwrist -9.38382
lhand -24.4205 21.7374
lfingers 7.12502
lthumb 2.07128 51.7071
rfemur 0 0 0
rtibia 0
rfoot 0 0
rtoes 0
lfemur 7.27988 -9.95576 -19.6793
ltibia 9.75231
lfoot -13.2125 21.6702
ltoes -3.93496
560
root -0.0276756 18.8309 4.1277 -3.53042 -5.19887 0.655006
lowerback 5.76158 1.60749 -1.77364
upperback 0.0344042 1.97868 -1.33143
thorax -3.2074 1.0015 -0.544417
lowerneck -5.24528 -5.05754 -6.13488
upperneck 12.089 -7.24562 7.90735
head 4.99529 -3.38334 3.00825
rclavicle 5.77718e-015 -2.18663e-014
rhumerus 13.8034 22.0814 -59.2048
rradius 131.927
rwrist -7.18512
rhand -36.8469 4.58248
rfingers 7.12502
rthumb -9.92696 -25.1635
lclavicle 5.77718e-015 -2.18663e-014
lhumerus -34.6751 15.5704 70.9644
lradius 20.7135
lwrist -9.44946
lhand -24.2466 21.7993
lfingers 7.12502
lthumb 2.23923 51.7673
rfemur 0 0 0
rtibia 0
rfoot 0 0
rtoes 0
lfemur 7.20364 -9.96384 -19.6652
ltibia 9.79889
lfoot -13.1716 21.6754
ltoes -4.02552
561
root -0.0277389 18.8322 4.12717 -3.52939 -5.14555 0.638976
lowerback 5.76258 1.59889 -1.73244
upperback 0.0451307 1.96946 -1.35378
thorax -3.19464 0.996044 -0.589482
lowerneck -5.4368 -5.08391 -6.14774
upperneck 12.0438 -7.27383 7.94811
head 5.01811 -3.39129 3.01639
rclavicle 5.09386e-015 2.78299e-015
rhumerus 14.218 21.7846 -58.9489
rradius 131.96
rwrist -6.92425
rhand -36.5133 2.99661
rfingers 7.12502
rthumb -9.60507 -26.7644
lclavicle 5.09386e-015 2.78299e-015
lhumerus -34.6595 15.6623 70.8598
lradius 20.6938
lwrist -9.56354
lhand -24.1565 21.8
lfingers 7.12502
lthumb 2.32622 51.7671
rfemur 0 0 0
rtibia 0
rfoot 0 0
rtoes 0
lfemur 7.16134 -9.99511 -19.6404
ltibia 9.8476
lfoot -13.1325 21.6617
ltoes -4.20497
562
root -0.0273408 18.8313 4.12834 -3.55143 -5.12309 0.632554
lowerback 5.75602 1.6239 -1.68795
upperback 0.0999745 2.00573 -1.39362
thorax -3.13149 1.0128 -0.657081
lowerneck -5.74346 -5.1421 -6.01815
upperneck 11.9479 -7.33243 7.84625
head 5.03694 -3.41384 2.95196
rclavicle -6.36732e-015 1.59028e-014
rhumerus 14.6331 21.4253 -58.6815
rradius 131.977
rwrist -6.60794
rhand -35.6829 -0.199733
rfingers 7.12502
rthumb -8.80386 -29.9961
lclavicle -6.36732e-015 1.59028e-014
lhumerus -34.5305 15.6858 70.8206
lradius 20.6702
lwrist -9.66617
lhand -24.1165 22.0615
lfingers 7.12502
lthumb 2.36481 52.0282
rfemur 0 0 0
rtibia 0
rfoot 0 0
rtoes 0
lfemur 7.19846 -9.99446 -19.6326
ltibia 9.81667
lfoot -13.0717 21.6582
ltoes -4.30403
563
root -0.0281725 18.8312 4.12749 -3.5739 -5.10889 0.677753
lowerback 5.78924 1.65729 -1.73289
upperback 0.142886 2.04561 -1.44026
thorax -3.1058 1.03275 -0.683516
lowerneck -6.03533 -5.17036 -5.8687
upperneck 11.806 -7.35279 7.75945
head 5.03601 -3.41704 2.89244
rclavicle -6.43876e-015 1.11319e-014
rhumerus 15.0707 21.0518 -58.4193
rradius 131.942
rwrist -6.31996
rhand -35.124 -2.75041
rfingers 7.12502
rthumb -8.26442 -32.5688
lclavicle -6.43876e-015 1.11319e-014
lhumerus -34.3851 15.6618 70.804
lradius 20.6326
lwrist -9.661
lhand -24.1086 22.2367
lfingers 7.12502
lthumb 2.3725 52.2032
rfemur 0 0 0
rtibia 0
rfoot 0 0
rtoes 0
lfemur 7.23193 -9.98236 -19.6749
ltibia 9.76829
lfoot -12.9766 21.6646
ltoes -4.36775
